<svg width="525" height="453" xmlns="http://www.w3.org/2000/svg">

 <g>
  <title>background</title>
  <rect fill="none" id="canvas_background" height="455" width="527" y="-1" x="-1"/>
 </g>
 <g>
  <title>Layer 1</title>
  <g id="layer1">
   <path id="svg_1" fill="red" d="m408.661739,353.40073c-22.51396,0.4374 -73.07538,-22.73288 -101.71356,-46.61096c-33.14562,-27.63681 -36.25674,-27.21437 -46.33507,6.28837c-3.11642,10.35982 -6.21674,14.53242 -9.84263,13.24582c-4.03286,-1.43039 -4.41313,-0.72518 -1.5974,2.95992c4.78628,6.26368 -17.76248,30.16461 -25.70358,27.24485c-4.25503,-1.56448 -4.58157,-0.25458 -1.56344,6.27346c2.09798,4.53751 1.98668,10.33964 -0.24687,12.89268c-2.23415,2.55345 -2.59606,6.51226 -0.8047,8.79734c6.01546,7.67311 0.53208,12.26731 -7.34752,6.15554c-7.33185,-5.68609 -7.48054,-5.52539 -3.28609,3.54699c2.64447,5.71983 2.37961,11.65133 -0.66599,14.9028c-2.7822,2.97037 -7.39363,9.07672 -10.24816,13.57027c-2.85386,4.49335 -7.51877,7.31321 -10.36613,6.2663c-7.56699,-2.78221 -13.9266,-18.77289 -9.48497,-23.84968c2.10057,-2.40114 1.4183,-6.46676 -1.51654,-9.03405c-4.29222,-3.75546 -3.36604,-8.69314 4.73641,-25.2469c6.79164,-13.87514 8.77024,-21.6187 6.07476,-23.77243c-2.72171,-2.17397 2.02818,-20.16638 14.88104,-56.37103c10.38319,-29.24743 19.50149,-55.51142 20.26232,-58.3638c0.76094,-2.8521 -2.72164,-9.09504 -7.7394,-13.8725c-5.018,-4.77733 -22.62565,-26.78162 -39.12847,-48.89754c-16.50293,-22.11636 -33.55969,-44.58872 -37.90382,-49.93918c-28.60677,-35.23104 -33.39971,-42.45469 -34.06946,-51.34427c-0.41148,-5.46134 1.64288,-13.36452 4.56516,-17.56227c5.72649,-8.22647 31.04896,-11.25249 46.52865,-5.56095c16.47588,6.05781 69.24144,63.85944 79.60836,87.20624c13.78461,31.04392 17.50715,30.66433 30.37024,-3.09917c17.18748,-45.11601 32.37431,-77.04565 39.78048,-83.63425c10.67248,-9.49449 33.70257,-12.34374 45.94824,-5.68475c6.00526,3.2655 13.72095,12.35657 17.14631,20.202c6.14503,14.07581 6.05348,14.49615 -6.90981,31.72334c-8.52759,11.3325 -20.82322,37.42108 -35.04181,74.35049l-21.90477,56.89159l29.54931,31.02006c36.71292,38.54035 52.30153,53.25661 65.59103,61.92084c12.6879,8.27196 19.15461,21.09465 13.05205,25.87925c-2.70845,2.12297 -2.41342,3.11345 0.73555,2.47105c2.89097,-0.5897 5.70879,1.1465 6.26151,3.85816c0.5533,2.7117 -4.69894,5.04104 -11.67123,5.17637z"/>
  </g>
 </g>
</svg>